<svg width="561" height="495" viewBox="0 0 561 495" fill="none" xmlns="http://www.w3.org/2000/svg">
<g clip-path="url(#clip0_641_1706)">
<rect x="78" width="396" height="346" rx="8" fill="#F2F2F2"/>
<path d="M78 8C78 3.58172 81.5817 0 86 0H466C470.418 0 474 3.58172 474 8V27H78V8Z" fill="#C5CFD6"/>
<path fill-rule="evenodd" clip-rule="evenodd" d="M91 18C93.2091 18 95 16.2091 95 14C95 11.7909 93.2091 10 91 10C88.7909 10 87 11.7909 87 14C87 16.2091 88.7909 18 91 18Z" fill="#F2F2F2"/>
<path fill-rule="evenodd" clip-rule="evenodd" d="M103 18C105.209 18 107 16.2091 107 14C107 11.7909 105.209 10 103 10C100.791 10 99 11.7909 99 14C99 16.2091 100.791 18 103 18Z" fill="#F2F2F2"/>
<path fill-rule="evenodd" clip-rule="evenodd" d="M115 18C117.209 18 119 16.2091 119 14C119 11.7909 117.209 10 115 10C112.791 10 111 11.7909 111 14C111 16.2091 112.791 18 115 18Z" fill="#F2F2F2"/>
<g clip-path="url(#clip1_641_1706)">
<g clip-path="url(#clip2_641_1706)">
<rect x="388" y="132" width="70" height="194" rx="8" fill="white"/>
<g clip-path="url(#clip3_641_1706)">
<rect x="406" y="150" width="34" height="26" rx="4" fill="#DDE3E9"/>
<rect x="406" y="184" width="34" height="25" rx="4" fill="#AFB9C5"/>
<rect x="406" y="217" width="34" height="25" rx="4" fill="#DDE3E9"/>
<rect x="406" y="283" width="34" height="25" rx="4" fill="#DDE3E9"/>
<rect x="406" y="250" width="34" height="25" rx="4" fill="#C5CFD6"/>
</g>
</g>
<rect x="388" y="43" width="70" height="81" rx="8" fill="white"/>
<g clip-path="url(#clip4_641_1706)">
<path fill-rule="evenodd" clip-rule="evenodd" d="M423 90C431.837 90 439 82.8366 439 74C439 65.1634 431.837 58 423 58C414.163 58 407 65.1634 407 74C407 82.8366 414.163 90 423 90Z" fill="#DDE3E9"/>
<rect x="398" y="94" width="50" height="6" rx="3" fill="#DDE3E9"/>
<rect x="406" y="104" width="34" height="6" rx="3" fill="#DDE3E9"/>
</g>
<g clip-path="url(#clip5_641_1706)">
<g clip-path="url(#clip6_641_1706)">
<rect x="94" y="43" width="286" height="47" rx="4" fill="white"/>
<g clip-path="url(#clip7_641_1706)">
<rect x="103" y="57.0996" width="228" height="7.05" rx="3" fill="#DDE3E9"/>
<rect x="103" y="68.8496" width="153.041" height="7.05" rx="3" fill="#DDE3E9"/>
</g>
<path fill-rule="evenodd" clip-rule="evenodd" d="M349.435 73.5C353.301 73.5 356.435 70.366 356.435 66.5C356.435 62.634 353.301 59.5 349.435 59.5C345.569 59.5 342.435 62.634 342.435 66.5C342.435 70.366 345.569 73.5 349.435 73.5Z" fill="#DDE3E9"/>
<path fill-rule="evenodd" clip-rule="evenodd" d="M349.435 69.5C351.092 69.5 352.435 68.1569 352.435 66.5C352.435 64.8431 351.092 63.5 349.435 63.5C347.778 63.5 346.435 64.8431 346.435 66.5C346.435 68.1569 347.778 69.5 349.435 69.5Z" fill="#F2F2F2"/>
</g>
<g clip-path="url(#clip8_641_1706)">
<rect x="94" y="98" width="286" height="39" rx="4" fill="white"/>
<g clip-path="url(#clip9_641_1706)">
<rect x="103" y="109.699" width="228" height="5.85" rx="2.925" fill="#DDE3E9"/>
<rect x="103" y="119.449" width="153.041" height="5.85" rx="2.925" fill="#DDE3E9"/>
</g>
<path fill-rule="evenodd" clip-rule="evenodd" d="M349.435 124.5C353.301 124.5 356.435 121.366 356.435 117.5C356.435 113.634 353.301 110.5 349.435 110.5C345.569 110.5 342.435 113.634 342.435 117.5C342.435 121.366 345.569 124.5 349.435 124.5Z" fill="#DDE3E9"/>
<path fill-rule="evenodd" clip-rule="evenodd" d="M349.435 120.5C351.092 120.5 352.435 119.157 352.435 117.5C352.435 115.843 351.092 114.5 349.435 114.5C347.778 114.5 346.435 115.843 346.435 117.5C346.435 119.157 347.778 120.5 349.435 120.5Z" fill="#F2F2F2"/>
</g>
<g clip-path="url(#clip10_641_1706)">
<rect x="94" y="145" width="286" height="39" rx="4" fill="white"/>
<g clip-path="url(#clip11_641_1706)">
<rect x="103" y="156.699" width="228" height="5.85" rx="2.925" fill="#DDE3E9"/>
<rect x="103" y="166.449" width="153.041" height="5.85" rx="2.925" fill="#DDE3E9"/>
</g>
<path fill-rule="evenodd" clip-rule="evenodd" d="M349.435 171.5C353.301 171.5 356.435 168.366 356.435 164.5C356.435 160.634 353.301 157.5 349.435 157.5C345.569 157.5 342.435 160.634 342.435 164.5C342.435 168.366 345.569 171.5 349.435 171.5Z" fill="#DDE3E9"/>
<path fill-rule="evenodd" clip-rule="evenodd" d="M349.435 167.5C351.092 167.5 352.435 166.157 352.435 164.5C352.435 162.843 351.092 161.5 349.435 161.5C347.778 161.5 346.435 162.843 346.435 164.5C346.435 166.157 347.778 167.5 349.435 167.5Z" fill="#AFB9C5"/>
</g>
<g clip-path="url(#clip12_641_1706)">
<rect x="94" y="286" width="286" height="39" rx="4" fill="white"/>
<g clip-path="url(#clip13_641_1706)">
<rect x="103" y="297.699" width="228" height="5.85" rx="2.925" fill="#DDE3E9"/>
<rect x="103" y="307.449" width="153.041" height="5.85" rx="2.925" fill="#DDE3E9"/>
</g>
<path fill-rule="evenodd" clip-rule="evenodd" d="M349.435 312.5C353.301 312.5 356.435 309.366 356.435 305.5C356.435 301.634 353.301 298.5 349.435 298.5C345.569 298.5 342.435 301.634 342.435 305.5C342.435 309.366 345.569 312.5 349.435 312.5Z" fill="#DDE3E9"/>
<path fill-rule="evenodd" clip-rule="evenodd" d="M349.435 308.5C351.092 308.5 352.435 307.157 352.435 305.5C352.435 303.843 351.092 302.5 349.435 302.5C347.778 302.5 346.435 303.843 346.435 305.5C346.435 307.157 347.778 308.5 349.435 308.5Z" fill="#F2F2F2"/>
</g>
<g clip-path="url(#clip14_641_1706)">
<rect x="94" y="239" width="286" height="39" rx="4" fill="white"/>
<g clip-path="url(#clip15_641_1706)">
<rect x="103" y="250.699" width="228" height="5.85" rx="2.925" fill="#DDE3E9"/>
<rect x="103" y="260.449" width="153.041" height="5.85" rx="2.925" fill="#DDE3E9"/>
</g>
<path fill-rule="evenodd" clip-rule="evenodd" d="M349.435 265.5C353.301 265.5 356.435 262.366 356.435 258.5C356.435 254.634 353.301 251.5 349.435 251.5C345.569 251.5 342.435 254.634 342.435 258.5C342.435 262.366 345.569 265.5 349.435 265.5Z" fill="#DDE3E9"/>
<path fill-rule="evenodd" clip-rule="evenodd" d="M349.435 261.5C351.092 261.5 352.435 260.157 352.435 258.5C352.435 256.843 351.092 255.5 349.435 255.5C347.778 255.5 346.435 256.843 346.435 258.5C346.435 260.157 347.778 261.5 349.435 261.5Z" fill="#F2F2F2"/>
</g>
<g clip-path="url(#clip16_641_1706)">
<rect x="94" y="192" width="286" height="39" rx="4" fill="white"/>
<g clip-path="url(#clip17_641_1706)">
<rect x="103" y="203.699" width="228" height="5.85" rx="2.925" fill="#DDE3E9"/>
<rect x="103" y="213.449" width="153.041" height="5.85" rx="2.925" fill="#DDE3E9"/>
</g>
<path fill-rule="evenodd" clip-rule="evenodd" d="M349.435 218.5C353.301 218.5 356.435 215.366 356.435 211.5C356.435 207.634 353.301 204.5 349.435 204.5C345.569 204.5 342.435 207.634 342.435 211.5C342.435 215.366 345.569 218.5 349.435 218.5Z" fill="#DDE3E9"/>
<path fill-rule="evenodd" clip-rule="evenodd" d="M349.435 214.5C351.092 214.5 352.435 213.157 352.435 211.5C352.435 209.843 351.092 208.5 349.435 208.5C347.778 208.5 346.435 209.843 346.435 211.5C346.435 213.157 347.778 214.5 349.435 214.5Z" fill="#F2F2F2"/>
</g>
</g>
</g>
</g>
<rect x="44.3521" y="375.043" width="38.304" height="9.31517" rx="2" fill="#AFB9C5"/>
<path fill-rule="evenodd" clip-rule="evenodd" d="M61.7065 299.486H63.5039H64.5119H66.3093C66.8316 315.445 69.2564 330.625 73.5839 345.027H64.5119H63.5039H54.4319C60.9231 323.424 61.7065 299.486 61.7065 299.486ZM47.2908 345.028C38.4307 345.028 31.248 352.21 31.248 361.07C31.248 369.931 38.4307 377.113 47.2908 377.113H79.7173C88.5774 377.113 95.76 369.931 95.76 361.07C95.76 352.21 88.5774 345.028 79.7172 345.028H47.2908Z" fill="#DDE3E9"/>
<path fill-rule="evenodd" clip-rule="evenodd" d="M27.8433 227.737C27.8433 227.737 45.1697 226 62.4961 226C79.8225 226 97.1489 227.737 97.1489 227.737L101.808 309.974C101.808 309.974 82.1521 311.907 62.4961 311.907C42.8401 311.907 23.1841 309.974 23.1841 309.974L27.8433 227.737Z" fill="#C5CFD6"/>
<path fill-rule="evenodd" clip-rule="evenodd" d="M0 491.999V407.128V384.357H21.168H104.832H126V491.999H104.832V407.128H21.168V491.999H0Z" fill="#AFB9C5"/>
<path fill-rule="evenodd" clip-rule="evenodd" d="M466.381 209.208C475.214 230.197 490.229 244.781 498.182 266.605C502.898 279.547 504.864 293.62 504.983 308.032C505.048 315.86 504.911 323.694 504.875 331.522C504.839 339.156 504.632 346.741 503.984 354.327C503.332 361.952 502.603 369.487 502.282 377.159C502.031 383.137 501.917 390.091 499.891 395.544C498.279 399.881 494.183 400.516 493.097 395.256C492.493 392.333 492.569 389.068 492.636 386.063C492.721 382.208 492.945 378.359 493.06 374.504C493.519 359.036 492.923 343.566 493.235 328.092C493.539 312.973 495.482 297.871 493.332 282.853C491.556 270.452 487.046 259.802 481.862 249.593C476.874 239.771 471.445 230.187 468.075 219.014C467.107 215.806 466.359 212.481 466 209.03C466.157 208.957 466.284 209.016 466.381 209.208Z" fill="#C1DEE2"/>
<path fill-rule="evenodd" clip-rule="evenodd" d="M463.974 250.617C465.723 251.88 466.7 253.728 467.882 255.551C469.352 257.817 471.081 259.863 472.551 262.131C475.615 266.86 478.308 271.879 481.102 276.799C486.406 286.137 490.433 296.091 492.427 306.895C494.495 318.092 495.052 329.648 495.919 341.012C496.839 353.056 497.765 365.188 497.887 377.279C497.942 382.696 498.235 388.446 497.584 393.825C497.179 397.173 495.668 400.027 492.261 400C485.025 399.942 481.627 391.927 480.208 385.354C478.119 375.674 477.702 365.393 478.033 355.494C478.432 343.558 480.504 331.802 481.4 319.912C482.35 307.325 481.814 294.96 477.486 283.109C475.3 277.12 472.763 271.274 470.484 265.325C469.514 262.792 468.719 260.19 467.409 257.831C465.951 255.208 464.142 252.826 463 250C463.324 250.206 463.649 250.411 463.974 250.617Z" fill="#89C5CC"/>
<path fill-rule="evenodd" clip-rule="evenodd" d="M547.334 225.518C547.556 225.345 547.778 225.173 548 225C547.361 227.693 546.207 229.88 545.324 232.341C544.531 234.554 544.129 237.058 543.595 239.477C542.34 245.158 540.89 250.711 539.706 256.44C537.36 267.777 537.804 279.99 539.342 292.568C540.795 304.45 543.092 316.313 544.187 328.192C545.095 338.043 545.485 348.202 544.619 357.601C544.031 363.984 542.103 371.606 536.848 370.962C534.374 370.659 533.084 367.681 532.564 364.32C531.729 358.922 531.554 353.246 531.229 347.878C530.502 335.896 530.358 323.951 530.214 312.092C530.078 300.904 529.705 289.494 530.452 278.587C531.173 268.063 533.428 258.58 536.653 249.83C538.351 245.22 539.97 240.502 541.878 236.108C542.793 234.001 543.911 232.139 544.827 230.033C545.563 228.339 546.148 226.601 547.334 225.518Z" fill="#C1DEE2"/>
<path fill-rule="evenodd" clip-rule="evenodd" d="M466.209 285.302C467.166 283.695 469.272 288.993 469.593 289.66C469.457 289.328 469.321 288.997 469.184 288.667C471.083 291.825 472.821 295.113 473.901 298.734C474.97 302.319 475.888 305.977 476.891 309.587C478.774 316.361 481.202 322.943 482.907 329.778C484.569 336.438 484.988 342.986 484.585 349.875C484.167 357.035 483.911 364.306 484.399 371.462C484.632 374.88 485.743 378.064 486.504 381.354C487.266 384.648 487.866 387.986 488.767 391.239C488.974 390.815 489 392.232 489 392.339C488.994 393.152 488.881 393.833 488.619 394.604C487.948 396.586 486.691 398.269 484.778 398.816C481.322 399.803 478.112 396.659 476.998 393.339C475.399 388.575 474.517 383.311 473.755 378.304C473.057 373.713 472.891 369.094 473.099 364.44C473.508 355.261 475.169 346.202 475.618 337.026C476.107 327.036 474.128 317.649 472.471 307.925C471.673 303.239 470.91 298.598 469.356 294.134C468.727 292.326 467.907 290.731 467.048 289.061C466.558 288.112 465.569 286.418 466.209 285.302Z" fill="#C1DEE2"/>
<path fill-rule="evenodd" clip-rule="evenodd" d="M494.252 269.697C493.856 281.142 493.172 292.5 491.646 303.824C490.089 315.38 488.3 326.897 486.802 338.463C485.343 349.722 483.815 361.168 484.018 372.585C484.168 380.993 482.774 395.219 492.113 399.369C501.572 403.572 503.601 385.623 504.222 379.699C505.412 368.333 505.027 356.847 504.449 345.419C503.856 333.689 502.866 322.02 501.64 310.334C500.277 297.353 499.208 284.314 498.349 271.296C497.925 264.857 497.82 258.429 497.937 251.988C498.048 245.911 497.817 239.77 495.656 234C495.543 234.082 495.431 234.164 495.318 234.246" fill="#69A1AC"/>
<path fill-rule="evenodd" clip-rule="evenodd" d="M543.083 305.955C541.382 308.433 539.667 310.887 538.061 313.512C535.186 318.209 532.587 323.432 531.805 330.147C530.169 344.2 531.481 359.379 531.798 373.863C531.863 376.822 531.489 379.693 532.655 382.51C533.713 385.064 535.691 387.01 537.576 387C541.611 386.977 540.995 377.095 541.002 372.746C541.014 365.123 540.159 357.422 540.233 349.806C540.306 342.26 540.765 334.694 541.859 327.528C542.967 320.275 544.589 313.309 546.729 306.81C547.026 305.908 549.158 298.937 547.144 300.139" fill="#89C5CC"/>
<path fill-rule="evenodd" clip-rule="evenodd" d="M525.262 231C522.609 231 522.625 244.226 522.546 245.925C522.257 252.055 522.325 258.188 522.143 264.319C521.744 277.701 521.254 291.2 519.243 304.426C518.161 311.547 516.907 318.636 515.557 325.702C514.204 332.789 512.387 339.867 511.497 347.044C510.642 353.943 511.125 360.977 511.242 367.91C511.359 374.885 511.57 381.874 512.484 388.788C512.709 390.494 512.974 392.195 513.257 393.891C513.492 395.305 513.355 397.058 513.754 398.401C514.393 400.552 517.133 401.256 518.978 400.92C523.97 400.009 527.159 393.74 528.865 389.16C531.043 383.311 532.199 376.967 533.339 370.804C534.631 363.821 535.388 356.732 535.743 349.623C536.466 335.175 535.539 320.712 534.504 306.31C533.928 298.301 533.263 290.327 532.246 282.367C531.232 274.441 529.932 266.55 529.086 258.601C528.471 252.825 527.865 247.04 527.467 241.241C527.371 239.859 527.291 231 525.262 231" fill="#69A1AC"/>
<path fill-rule="evenodd" clip-rule="evenodd" d="M521.941 327.139C521.508 313.253 515.927 252.259 514.657 235.467C514.339 231.264 511.282 213.765 510.885 209C509.81 210.347 509.901 231.309 509.913 236.126C509.926 240.891 509.335 245.576 509.031 250.315C508.721 255.151 501.572 317.601 500.645 322.247C498.799 331.491 497.564 340.976 496.611 350.428C495.683 359.639 494.24 369.358 495.482 378.618C495.767 380.75 496.219 382.848 496.955 384.806C497.749 386.922 498.294 388.879 498.932 391.093C499.958 394.659 501.815 397.789 504.668 399.262C510.517 402.281 513.658 395.447 515.251 389.497C517.793 379.995 519.426 370.338 520.191 360.359C521.037 349.318 522.287 338.255 521.941 327.139" fill="#89C5CC"/>
<rect x="460" y="368" width="91" height="91" rx="2" fill="white"/>
<rect x="450" y="378" width="10" height="113" rx="2" fill="#C5CFD6"/>
<rect x="500" y="378" width="10" height="113" rx="2" fill="#C5CFD6"/>
<rect x="551" y="378" width="10" height="113" rx="2" fill="#C5CFD6"/>
<path fill-rule="evenodd" clip-rule="evenodd" d="M421.913 284.92L378.771 394.115L349.835 486.43H338.409L382.645 284.92L421.913 284.92Z" fill="#997659"/>
<path fill-rule="evenodd" clip-rule="evenodd" d="M430.601 284.92C431.06 323.292 437.76 374.953 438.83 377.345C439.901 379.737 512.735 438.18 512.735 438.18L504.865 446.601C504.865 446.601 418.928 396.494 414.951 389.811C410.974 383.128 398.027 321.63 387.633 284.92H430.601Z" fill="#B28B67"/>
<path fill-rule="evenodd" clip-rule="evenodd" d="M511.394 436.856C511.73 435.734 512.913 435.064 514.011 435.471C515.761 436.119 518.159 437.111 519.25 438.026C521.071 439.554 524.056 443.093 524.056 443.093C522.283 445.206 492.188 481.071 492.188 481.071C492.188 481.071 486.052 478.445 488.338 474.928C490.624 471.411 492.08 469.038 492.08 469.038L498.988 444.902C499.143 444.361 499.715 444.054 500.252 444.224L503.838 445.362C503.838 445.362 507.693 443.565 509.242 441.719C510.138 440.651 510.906 438.489 511.394 436.856Z" fill="#E4E4E4"/>
<path fill-rule="evenodd" clip-rule="evenodd" d="M351.836 481.291C352.911 480.827 354.185 481.303 354.579 482.406C355.207 484.163 355.989 486.637 355.989 488.061C355.989 490.438 355.197 495 355.197 495C352.438 495 305.62 495 305.62 495C305.62 495 303.687 488.611 307.851 488.102C312.014 487.592 314.768 487.182 314.768 487.182L337.697 476.96C338.212 476.731 338.814 476.971 339.029 477.492L340.463 480.97C340.463 480.97 344.317 482.768 346.727 482.768C348.121 482.768 350.271 481.967 351.836 481.291Z" fill="#E4E4E4"/>
<path fill-rule="evenodd" clip-rule="evenodd" d="M392.907 476.921L338.581 471.026L378.843 284.92H427.5L392.907 476.921Z" fill="#191847"/>
<path fill-rule="evenodd" clip-rule="evenodd" d="M501.498 424.593L465.863 466.772C465.863 466.772 409.563 405.282 400.217 386.528C390.871 367.774 383.414 284.92 383.414 284.92H438.194C438.194 284.92 442.267 357.811 443.686 361.203C445.104 364.595 501.498 424.593 501.498 424.593Z" fill="#2F3676"/>
<path fill-rule="evenodd" clip-rule="evenodd" d="M401.47 133.732C411.911 133.732 420.375 142.196 420.375 152.637V171.083C420.375 180.554 413.411 188.398 404.325 189.774C404.321 189.852 404.317 189.93 404.312 190.008H379.946C376.084 186.06 379.89 160.833 382.79 149.715C384.194 140.662 392.023 133.732 401.47 133.732Z" fill="#191847"/>
<path fill-rule="evenodd" clip-rule="evenodd" d="M401.104 176.139C395.664 179.569 390.318 181.227 387.808 180.55C381.515 178.854 380.937 154.771 385.806 145.277C390.675 135.783 415.705 131.644 416.967 150.455C417.404 156.984 414.784 162.81 410.912 167.565L417.854 201.415H397.689L401.104 176.139Z" fill="#B28B67"/>
<path fill-rule="evenodd" clip-rule="evenodd" d="M419.635 150.565C419.049 149.96 418.483 149.374 417.921 148.849L417.948 148.166C417.948 148.166 411.619 134.611 401.889 134.611C392.168 134.611 389.094 139.339 386.481 143.358L386.474 143.369C387.84 148.276 391.96 150.261 396.619 152.506C398.625 153.472 400.73 154.487 402.759 155.803C403.554 155.128 404.568 154.723 405.671 154.723C408.224 154.723 410.293 156.888 410.293 159.558C410.293 162.228 408.224 164.392 405.671 164.392C405.601 164.392 405.531 164.39 405.461 164.387C404.532 174.828 404.904 186.751 407.673 189.581H432.04C432.739 176.867 429.595 173.241 426.383 169.534C423.36 166.047 420.277 162.49 420.277 151.227C420.06 151.005 419.846 150.784 419.635 150.566L419.635 150.565L419.635 150.565Z" fill="#191847"/>
<path fill-rule="evenodd" clip-rule="evenodd" d="M495.429 318.825C492.151 313.873 473.188 261.213 473.188 261.213L457.619 263.538C457.619 263.538 482.686 319.457 484.497 322.684C486.849 326.877 484.768 333.762 483.358 338.432C483.14 339.154 482.937 339.823 482.77 340.421C485.733 341.301 486.86 339.557 488.049 337.719C489.391 335.642 490.811 333.445 495.043 334.771C496.678 335.284 498.249 335.942 499.783 336.584C505.084 338.805 509.954 340.845 515.547 336.075C516.434 335.319 517.181 332.846 514.362 331.405C507.341 327.815 497.031 321.246 495.429 318.825ZM326.502 294.35L353.036 271.221L360.288 286.492L333.394 300.292C326.204 310.316 322.092 314.575 321.057 313.069C320.185 311.799 320.712 310.513 321.197 309.329C321.575 308.407 321.928 307.546 321.574 306.802C320.768 305.103 315.518 305.665 310.559 306.418C305.599 307.171 306.897 304.785 308.023 303.572C312.9 300.074 319.059 297 326.502 294.35Z" fill="#B28B67"/>
<path fill-rule="evenodd" clip-rule="evenodd" d="M408.118 195.958L398.471 192.678C385.385 226.289 365.868 258.809 333.26 286.278L341.324 300.581C369.982 283.224 397.109 269.741 408.118 243.697C411.812 234.956 408.419 206.41 408.118 195.958Z" fill="#C5CFD6"/>
<path fill-rule="evenodd" clip-rule="evenodd" d="M441.251 290.552C441.251 290.552 399.8 295.071 375.998 290.552C374.032 290.179 373.722 286.795 374.634 284.498C388.831 248.73 398.567 217.521 398.567 192.678C402.475 194.703 412.244 193.285 412.244 193.285C429.749 218.887 437.795 248.262 441.251 290.552Z" fill="#323337"/>
<path fill-rule="evenodd" clip-rule="evenodd" d="M417.261 191.139C416.809 190.826 416.57 190.67 416.57 190.67L416.596 191.139H409.301C408.935 193.355 408.398 201.571 407.615 213.55C404.77 257.081 398.676 350.314 385.707 385.994H475.193C473.305 345.429 458.759 296.92 443.691 255.73C454.81 267.105 467.796 286.171 478.29 317.911L495.052 313.487C477.97 237.807 427.924 198.777 418.213 191.811C418.118 191.586 418.024 191.362 417.93 191.139H417.261Z" fill="#DDE3E9"/>
<path fill-rule="evenodd" clip-rule="evenodd" d="M135.546 175.203C142.688 179.556 149.706 181.66 153 180.801C161.26 178.648 162.02 148.089 155.628 136.041C149.237 123.994 116.38 118.743 114.724 142.613C114.149 150.897 117.589 158.29 122.671 164.323L113.559 207.277H140.029L135.546 175.203Z" fill="#B28B67"/>
<path fill-rule="evenodd" clip-rule="evenodd" d="M136.87 145.973C139.159 142.525 141.358 139.896 144.217 138.368C155.854 138.554 157.217 136.445 157.217 129.334C155.337 127.974 148.705 125.683 141.278 125.039C137.489 123.943 133.001 124.149 128.677 125.978C123.34 127.509 118.82 130.808 116.824 136.982C109.602 149.587 115.084 162.708 122.471 167.19C124.437 164.834 126.154 162.551 127.685 160.365C126.455 159.15 125.691 157.454 125.691 155.578C125.691 151.882 128.654 148.885 132.309 148.885C132.578 148.885 132.842 148.902 133.103 148.933C133.267 153.553 133.944 169.189 135.722 174.62C137.818 181.022 150.048 182.594 154.314 182.594C157.998 182.594 157.873 179.066 157.783 176.538C157.77 176.173 157.757 175.83 157.757 175.521C157.757 174.875 156.927 174.876 155.988 174.878C154.769 174.881 153.368 174.884 153.368 173.469C153.368 171.928 155.475 170.745 157.36 169.687C158.536 169.027 159.626 168.415 160.064 167.795C161.447 165.838 161.913 163.198 159.827 163.198C158.687 163.198 157.122 163.863 155.24 164.662C152.399 165.87 148.834 167.385 144.911 167.385C138.424 167.385 136.886 146.196 136.87 145.973Z" fill="#191847"/>
<path fill-rule="evenodd" clip-rule="evenodd" d="M124.7 279.93L190.833 390.159L240.413 483.349H251.092L168.02 279.93L124.7 279.93Z" fill="#997659"/>
<path fill-rule="evenodd" clip-rule="evenodd" d="M236.566 478.15C235.493 477.687 234.221 478.162 233.826 479.262C233.189 481.037 232.39 483.552 232.39 484.996C232.39 487.396 233.192 492.001 233.192 492.001C235.985 492.001 283.39 492.001 283.39 492.001C283.39 492.001 285.346 485.552 281.131 485.037C276.915 484.523 274.126 484.109 274.126 484.109L250.897 473.784C250.383 473.556 249.782 473.796 249.567 474.316L248.11 477.838C248.11 477.838 244.208 479.654 241.768 479.654C240.348 479.654 238.153 478.835 236.566 478.15Z" fill="#E4E4E4"/>
<path fill-rule="evenodd" clip-rule="evenodd" d="M226.643 468.426L247.238 462.215C247.238 462.215 233.703 421.876 214.061 373.431C194.418 324.986 171.87 279.93 171.87 279.93H113.703C113.703 279.93 138.772 336.924 166.856 383.503C194.939 430.082 226.643 468.426 226.643 468.426Z" fill="#57331F"/>
<path fill-rule="evenodd" clip-rule="evenodd" d="M120.354 279.93C114.112 318.665 102.074 368.154 100.937 369.681C100.18 370.699 72.9132 379.809 19.137 397.009L21.4438 406.398C85.5719 397.173 119.362 390.016 122.814 384.927C127.992 377.294 153.846 316.987 163.86 279.93H120.354Z" fill="#915B3C"/>
<path fill-rule="evenodd" clip-rule="evenodd" d="M38.0403 388.893L42.1035 404.015C90.0676 408.209 119.456 405.178 130.269 394.923C141.083 384.668 153.407 346.337 167.241 279.93H111.776C103.01 334.308 98.11 362.639 97.0746 364.922C96.0391 367.205 76.361 375.195 38.0403 388.893Z" fill="#915B3C"/>
<path fill-rule="evenodd" clip-rule="evenodd" d="M23.12 395.589C23.3921 394.449 22.7001 393.274 21.5438 393.078C19.68 392.761 17.0603 392.413 15.6355 392.664C13.2647 393.081 8.85554 394.668 8.85554 394.668C9.3405 397.41 17.5723 443.954 17.5723 443.954C17.5723 443.954 24.2825 444.755 24.0584 440.527C23.8343 436.298 23.7594 433.489 23.7594 433.489L29.9226 408.894C30.0597 408.347 29.7171 407.795 29.1658 407.674L25.4358 406.856C25.4358 406.856 22.9649 403.339 22.5412 400.944C22.2953 399.553 22.7202 397.265 23.12 395.589Z" fill="#E4E4E4"/>
<path fill-rule="evenodd" clip-rule="evenodd" d="M187.267 201.703L159.024 222.706L172.02 233.207L191.396 209.792C202.654 204.929 207.678 201.822 206.469 200.473C205.449 199.335 204.096 199.57 202.849 199.786C201.878 199.955 200.972 200.112 200.339 199.6C198.892 198.432 200.63 193.391 202.484 188.679C204.337 183.966 201.752 184.717 200.332 185.557C195.863 189.583 191.508 194.965 187.267 201.703ZM221.319 220.818L208.916 230.066L211.571 243.403C211.571 243.403 219.394 235.917 226.588 232.784C235.762 228.788 239.34 226.219 243.172 219.637C245.223 216.115 246.445 209.443 243.778 207.701C242.754 207.033 239.623 209.391 236.428 211.798C233.993 213.632 231.521 215.494 229.917 216.065C227.758 216.834 227.614 213.924 227.5 211.599C227.417 209.93 227.35 208.563 226.563 209.072C222.639 209.692 221.319 220.818 221.319 220.818Z" fill="#997659"/>
<path fill-rule="evenodd" clip-rule="evenodd" d="M143.603 221.079C154.302 219.46 168.273 215.196 182.163 203.405L190.022 215.876C180.968 227.759 167.382 238.386 154.402 239.841C144.173 240.988 137.239 229.432 143.603 221.079Z" fill="#2F3676"/>
<path fill-rule="evenodd" clip-rule="evenodd" d="M127.522 316.343C117.149 316.451 107.618 316.55 102.224 318.418C93.1688 299.142 96.5535 285.728 99.6781 273.345C101.561 265.882 103.35 258.793 102.264 251.021C99.1001 228.389 112.43 190.994 115.112 190.618L115.882 190.509L137.133 187.523L139.566 187.181C142.628 201.031 149.425 215.538 156.266 230.137C157.863 233.547 159.463 236.961 161.019 240.374C179.356 241.898 216.851 222.352 216.851 222.352C216.851 222.352 229.701 241.5 230.18 250.356C208.891 265.547 189.953 273.647 173.783 276.279C175.647 285.801 175.759 295.096 172.996 303.991C169.295 315.91 146.934 316.142 127.522 316.343Z" fill="#191847"/>
<path fill-rule="evenodd" clip-rule="evenodd" d="M243.773 188.224C243.773 188.229 243.772 188.235 243.77 188.241C243.772 188.236 243.771 188.215 243.773 188.224" fill="#C5CFD6"/>
<path fill-rule="evenodd" clip-rule="evenodd" d="M243.771 188.232C243.771 188.233 243.77 188.236 243.771 188.237C243.77 188.233 243.775 188.216 243.771 188.232" fill="#C5CFD6"/>
<path fill-rule="evenodd" clip-rule="evenodd" d="M243.784 188.142C243.782 188.163 243.778 188.184 243.775 188.205C243.776 188.194 243.778 188.186 243.78 188.175C243.742 188.452 243.765 188.272 243.784 188.142" fill="#C5CFD6"/>
<path fill-rule="evenodd" clip-rule="evenodd" d="M243.777 188.206C243.775 188.215 243.774 188.226 243.772 188.236C243.757 188.297 243.777 188.206 243.777 188.206" fill="#C5CFD6"/>
<path fill-rule="evenodd" clip-rule="evenodd" d="M243.771 188.232C243.771 188.231 243.771 188.231 243.772 188.23C243.771 188.231 243.771 188.231 243.771 188.232" fill="#C5CFD6"/>
<path fill-rule="evenodd" clip-rule="evenodd" d="M243.769 188.241C243.766 188.254 243.785 188.189 243.769 188.241Z" fill="#C5CFD6"/>
<path fill-rule="evenodd" clip-rule="evenodd" d="M243.771 188.233L243.772 188.23C243.772 188.231 243.772 188.232 243.771 188.233" fill="#C5CFD6"/>
<rect x="182" y="148.191" width="100" height="66" rx="4" transform="rotate(-14 182 148.191)" fill="#CC0000"/>
<path d="M207.487 181.709L207.086 180.094L215.035 162.825L217.52 162.209L209.664 179.455L208.36 179.382L225.847 175.046L226.34 177.034L207.487 181.709ZM221.172 184.381L219.755 178.667L219.324 176.663L218.076 171.632L220.251 171.093L223.409 183.827L221.172 184.381ZM241.435 179.554C239.757 179.97 238.159 179.905 236.638 179.359C235.113 178.792 233.775 177.783 232.624 176.332C231.468 174.861 230.602 172.965 230.027 170.646C229.452 168.327 229.334 166.257 229.674 164.437C230.008 162.595 230.72 161.078 231.809 159.885C232.892 158.671 234.273 157.856 235.95 157.44C237.627 157.024 239.229 157.1 240.754 157.666C242.274 158.213 243.612 159.221 244.768 160.693C245.94 162.139 246.814 164.021 247.389 166.34C247.964 168.659 248.074 170.742 247.719 172.589C247.379 174.409 246.667 175.927 245.584 177.14C244.495 178.334 243.112 179.138 241.435 179.554ZM240.926 177.504C242.21 177.186 243.243 176.567 244.026 175.647C244.804 174.707 245.298 173.508 245.508 172.049C245.712 170.57 245.573 168.857 245.09 166.91C244.608 164.964 243.933 163.395 243.066 162.203C242.194 160.991 241.197 160.161 240.075 159.714C238.948 159.246 237.742 159.172 236.459 159.49C235.216 159.798 234.196 160.425 233.397 161.37C232.593 162.295 232.089 163.497 231.885 164.976C231.675 166.435 231.811 168.138 232.294 170.084C232.777 172.03 233.454 173.61 234.326 174.822C235.193 176.014 236.201 176.841 237.349 177.304C238.491 177.745 239.684 177.812 240.926 177.504ZM254.409 170.072L254.009 168.457L261.957 151.188L264.442 150.572L256.586 167.818L255.283 167.746L272.769 163.409L273.262 165.397L254.409 170.072ZM268.095 172.744L266.677 167.03L266.247 165.026L264.999 159.995L267.173 159.456L270.331 172.19L268.095 172.744Z" fill="white"/>
<defs>
<clipPath id="clip0_641_1706">
<rect width="396" height="346" fill="white" transform="translate(78)"/>
</clipPath>
<clipPath id="clip1_641_1706">
<rect width="364" height="283" fill="white" transform="translate(94 43)"/>
</clipPath>
<clipPath id="clip2_641_1706">
<rect width="70" height="194" fill="white" transform="translate(388 132)"/>
</clipPath>
<clipPath id="clip3_641_1706">
<rect width="34" height="158" fill="white" transform="translate(406 150)"/>
</clipPath>
<clipPath id="clip4_641_1706">
<rect width="50" height="52" fill="white" transform="translate(398 58)"/>
</clipPath>
<clipPath id="clip5_641_1706">
<rect width="286" height="282" fill="white" transform="translate(94 43)"/>
</clipPath>
<clipPath id="clip6_641_1706">
<rect width="286" height="47" fill="white" transform="translate(94 43)"/>
</clipPath>
<clipPath id="clip7_641_1706">
<rect width="228" height="19" fill="white" transform="translate(103 57.0996)"/>
</clipPath>
<clipPath id="clip8_641_1706">
<rect width="286" height="39" fill="white" transform="translate(94 98)"/>
</clipPath>
<clipPath id="clip9_641_1706">
<rect width="228" height="16" fill="white" transform="translate(103 109.699)"/>
</clipPath>
<clipPath id="clip10_641_1706">
<rect width="286" height="39" fill="white" transform="translate(94 145)"/>
</clipPath>
<clipPath id="clip11_641_1706">
<rect width="228" height="16" fill="white" transform="translate(103 156.699)"/>
</clipPath>
<clipPath id="clip12_641_1706">
<rect width="286" height="39" fill="white" transform="translate(94 286)"/>
</clipPath>
<clipPath id="clip13_641_1706">
<rect width="228" height="16" fill="white" transform="translate(103 297.699)"/>
</clipPath>
<clipPath id="clip14_641_1706">
<rect width="286" height="39" fill="white" transform="translate(94 239)"/>
</clipPath>
<clipPath id="clip15_641_1706">
<rect width="228" height="16" fill="white" transform="translate(103 250.699)"/>
</clipPath>
<clipPath id="clip16_641_1706">
<rect width="286" height="39" fill="white" transform="translate(94 192)"/>
</clipPath>
<clipPath id="clip17_641_1706">
<rect width="228" height="16" fill="white" transform="translate(103 203.699)"/>
</clipPath>
</defs>
</svg>
